<?xml version="1.0" standalone="no"?><!DOCTYPE svg PUBLIC "-//W3C//DTD SVG 1.1//EN" "http://www.w3.org/Graphics/SVG/1.1/DTD/svg11.dtd"><svg t="1766102364671" class="icon" viewBox="0 0 1024 1024" version="1.1" xmlns="http://www.w3.org/2000/svg" p-id="27532" xmlns:xlink="http://www.w3.org/1999/xlink" width="256" height="256"><path d="M117.884231 1023.948813h-4.504474c0.870182-5.784154-1.126118-10.083879-5.988902-13.411047-19.809448-13.666983-40.386703-25.747163-63.625694-32.452687-15.714471-4.555661-30.661135-3.83904-43.765059 7.473331v-65.468432c0.92137 0.051187 1.842739 0.102374 2.764109 0.204748 21.293877 2.764109 39.004649 13.35986 56.152362 25.388853 8.445889 5.937716 16.942964 11.72187 24.621045 18.632142 11.568308 10.493377 21.856936 22.112872 31.582504 34.346613 2.354611 2.968858 4.402099 3.071232 6.705524 0.204749 0.92137-1.177306 1.689178-2.661735 2.917671-3.378355 3.583104-2.098675 5.528218-7.370957 10.646938-6.347213 9.623194 1.893927 19.04164 4.504474 26.259035 11.670682 4.658035 4.658035 9.87913 5.11872 15.970407 4.197351 15.049038-2.20105 29.483829-6.96146 44.276931-10.186254 7.166208-1.535616 14.28123-3.275981 20.935566-6.296026 17.403649-7.831642 34.653737-16.021595 52.057386-23.802049 4.658035-2.098675 8.804199-4.606848 12.745614-7.934017 8.036391-6.756711 15.253787-14.537166 24.16036-20.065383 2.610547-1.586803 3.122419-2.354611 1.893926-4.913972-1.740365-3.736666-3.122419-7.67808-4.811597-11.414746-7.012647-15.356161-9.674381-31.48013-9.008948-48.32072 0.563059-14.434791 4.606848-27.385154 14.946664-37.827343 2.047488-2.047488 2.252237-4.146163 1.433241-6.654337-2.610547-7.729268-3.992602-15.612097-4.453286-23.750862-0.102374-1.893927 0.102374-4.094976-1.586804-5.630592-1.27968 0.767808-1.023744 2.047488-1.126118 3.071232-1.535616 16.584654-7.626893 31.684879-15.049038 46.324419-0.767808 1.484429-1.382054 3.429543-3.429543 3.275981-2.405799-0.204749-2.661735-2.354611-2.91767-4.197351-0.409498-3.071232-1.740365-5.732967-3.020045-8.445888-0.665434-1.433242-0.818995-3.736666-2.968858-3.583105-1.791552 0.102374-1.689178 2.20105-2.303424 3.531917-1.177306 2.610547-2.610547 5.528218-5.784154 5.374657-3.275981-0.153562-3.378355-3.531917-4.248538-5.937716-2.405799-6.500775-3.890227-13.257486-8.753012-18.734516-3.224794-3.685479-5.732967-3.48073-8.804199-0.307123-3.020045 3.122419-6.500775 5.630592-10.339815 7.67808-1.689178 0.92137-3.378355 1.842739-5.221094 0.614246-2.149863-1.382054-1.893927-3.48073-1.484429-5.579405 0.92137-4.811597 1.945114-9.572007 2.661734-14.434791 1.177306-7.882829-0.972557-11.005249-7.831642-14.741914-8.138765-4.402099-17.608398-5.11872-25.388853-10.288628-1.945114-1.27968-3.275981-0.307123-4.658035 1.433241-3.071232 3.787853-6.500775 4.043789-9.930318 0.358311-1.126118-1.228493-2.354611-2.456986-3.685478-3.48073-20.986753-16.379905-38.083279-36.445289-54.0025-57.585604-3.634291-4.811597-7.31977-9.572007-11.15881-14.537165-1.023744 1.637991-0.511872 2.508173-0.153561 3.327168 6.500775 15.151412 12.899175 30.405199 19.604698 45.505424 2.661735 5.988903 5.886528 11.773057 10.954062 16.226343 0.92137 0.818995 3.020045 0.511872 2.764109 2.303424-0.255936 1.689178-2.098675 1.996301-3.429543 2.610547-1.586803 0.767808-3.275981 0.460685-4.965158 0.358311-14.28123-0.972557-25.849538-8.138765-36.957161-16.277531-2.866483-2.098675-6.142464-5.425844-9.316071-4.248538-3.071232 1.177306-0.870182 5.68178-1.330867 8.650638-0.307123 1.791552 0.511872 4.350912-1.586804 4.965158-2.508173 0.716621-3.224794-1.945114-4.19735-3.685478-6.910272-12.336116-11.977806-25.491227-16.891777-38.646339-1.228493-3.327168-3.020045-5.374656-6.807898-5.528218-10.493377-0.409498-20.67963-2.55936-30.917071-4.965158-11.465934-2.712922-21.089128-8.24114-30.149263-15.458536-9.87913-7.831642-18.990452-16.379905-27.333966-25.79835v-6.756711c0.716621 0.614246 1.535616 1.126118 2.098675 1.842739 13.103924 16.226343 28.152962 29.637391 47.450537 38.492777 11.875431 5.425844 24.109173 7.729268 36.598851 9.776756 2.55936 0.409498 5.784154 0.051187 4.299725-4.248538-6.296026-18.376206-10.135066-37.366658-14.076481-56.305923-0.767808-3.583104-2.764109-5.937716-5.374657-8.24114-29.125519-25.593602-49.037341-56.715421-57.329667-95.105824-6.3984-29.637391-8.087578-59.428343-6.091277-89.67998 2.405799-37.008348 10.083879-72.992952 20.218945-108.414496 9.674381-33.834741 23.648488-66.133867 38.44159-98.074681 2.405799-5.169908 4.709223-10.442189 7.012646-15.663284-1.484429 0.35831-2.252237 1.126118-2.866483 1.9963-24.211547 33.476431-44.276931 69.256286-60.963959 106.981255-3.122419 7.012647-5.169908 14.537166-9.469633 20.986753v-11.312371c2.661735-3.531917 3.48073-7.882829 5.272282-11.773057 13.666983-29.995701 28.92077-59.018845 47.501725-86.250438 6.244839-9.162509 12.847988-18.017896 18.990452-27.231592 2.764109-4.197351 7.831642-5.630592 10.237441-10.186253 10.544564-20.116571 21.037941-40.284329 32.196751-60.093777 12.592052-22.215246 26.463784-43.713872 42.28063-63.728068 15.970407-20.167758 33.322869-39.107023 51.852636-56.971357 1.433242-1.382054 3.941415-2.764109 3.275981-4.862784-0.818995-2.764109-3.787853-1.586803-5.886528-1.740365-14.383604-0.92137-20.423694-5.988903-24.109173-19.860635-1.842739-6.859085-1.996301-13.71817-1.996301-20.67963h57.227294c0.511872 4.555661 5.11872 6.193652 6.859085 9.930317 1.484429 3.224794 3.83904 2.866483 6.347213 0.972557 4.913972-3.685479 9.87913-7.268583 14.844289-10.902874h416.459085c0.563059 17.301275 13.513422 29.790952 30.456386 29.381455 2.968858-0.051187 5.988903-0.307123 8.957761-0.665434 7.217396-0.818995 14.28123-1.996301 16.584653-10.646938 0.255936-1.023744 0.972557-2.354611 2.405799-1.637991 1.177306 0.614246 0.972557 1.996301 0.563059 3.020045-1.637991 4.146163-3.992602 7.67808-8.548263 9.060135-6.091277 1.842739-12.233742 3.634291-18.580954 4.146164-10.442189 0.870182-20.218945-0.409498-26.873282-10.032692-0.818995-1.177306-1.586803-3.122419-3.736666-2.610548-0.563059 1.433242 0.35831 2.303424 0.972557 3.12242 5.68178 7.268583 13.666983 11.926618 20.270132 18.171457 1.382054 1.27968 4.658035 2.508173 1.637991 4.299725-5.016346 2.968858-4.658035 5.835341-1.842739 9.981505 1.842739 2.712922 1.330867 6.193652 1.330867 9.367258 0 6.859085 1.023744 13.513422 3.429542 19.911822 2.661735 7.063834 6.96146 13.615796 6.910273 21.549812 0 1.023744 0.665434 2.149863 1.177306 3.12242 15.049038 29.995701 26.259035 61.475831 35.626293 93.621395 3.327168 11.312372 3.173607 11.15881 12.336116 3.83904 14.741915-11.824244 28.92077-24.365109 44.532867-35.114422 4.913972-3.378355 8.189953-2.149863 12.899175 4.043789 3.224794 4.248538-0.102374 6.859085-2.508173 9.674382-0.716621 0.818995-1.689178 1.484429-2.55936 2.20105-16.994151 13.257486-33.937116 26.566158-50.931267 39.823644-4.453287 3.48073-4.402099 4.350912 0.255936 7.063834 12.592052 7.370957 25.184104 14.741915 37.776156 22.215246 7.729268 4.555661 15.509723 9.111322 23.034241 13.974106 4.146163 2.661735 4.965159 7.780455 2.55936 11.875431-2.661735 4.555661-6.347213 3.685479-10.23744 1.84274-1.330867-0.665434-2.661735-1.382054-3.992602-2.047488-14.741915-7.370957-28.152962-17.147713-42.997251-24.365109-7.473332-3.634291-7.473332-3.685479-7.370957 4.504474 0 0.204749-0.511872 0.35831-1.074931 0.767808-1.382054-2.303424-2.098675-4.76041-2.149863-7.422145-0.051187-2.149863-0.511872-4.146163-2.55936-5.272282-3.736666-2.098675-7.473332-4.248538-11.261185-6.244838-1.740365-0.92137-3.583104-0.92137-5.272282 0.307123-8.855386 6.296026-15.714471 15.100225-26.361409 20.167758 3.071232 1.126118 5.11872 1.177306 7.115021 0.665434 2.098675-0.563059 3.071232 0.665434 3.992602 2.201049 1.177306 1.996301-0.35831 2.712922-1.586804 3.48073-2.252237 1.330867-2.252237 2.917671-1.228493 5.221095 2.303424 5.272282 1.637991 10.646938-0.35831 15.91922-0.870182 2.252237-2.55936 3.071232-4.76041 3.224794-1.893927 0.153562-3.275981-0.511872-4.043789-2.354611-2.456986-6.091277-7.575706-10.135066-11.465933-15.100225-0.716621-0.870182-1.330867-2.047488-2.661735-1.177306-0.972557 0.614246-0.614246 1.689178-0.204749 2.55936 1.330867 2.815296 1.023744 5.528218-0.409497 8.087578-4.094976 7.268583-4.146163 7.268583-2.610548 13.206299-1.945114 0.818995-2.917671-3.071232-4.862784-1.126119-1.689178 1.637991-0.460685 3.634291 0.153562 5.323469 5.272282 15.253787 10.083879 30.763509 16.328717 45.658986 1.945114 4.658035 3.736666 9.264884 5.630593 13.922919 9.572007 24.109173 20.423694 47.655286 34.704923 69.409847 0.870182 1.330867 1.330867 3.634291 3.429543 3.071233 1.586803-0.409498 1.382054-2.508173 1.637991-3.941415 6.296026-30.251637 9.930317-60.810397 11.926618-91.625094 0.35831-5.221095 1.074931-10.391002 1.586803-15.56091l1.740365 0.153562c0 1.996301 0.102374 4.043789 0 6.04009-0.35831 7.31977-0.767808 14.63954-1.126118 21.95931-0.972557 20.628443-3.83904 41.103324-5.067533 61.782954-1.177306 19.860635-9.827943 38.083279-14.895477 57.124919-0.716621 2.712922-2.456986 5.374656-0.35831 8.650638 5.784154-10.646938 11.209998-21.447438 15.868033-32.555062 4.709223-11.261185 8.701825-22.829493 14.690727-33.476431-7.012647 21.856936-16.482279 42.690127-25.491227 63.728068-1.893927 4.402099-1.893927 6.807898 2.456986 9.623195 6.96146 4.504474 7.268583 7.575706 2.55936 13.820544-2.098675 2.764109-1.945114 5.169908 0.102374 7.626894 1.177306 1.433242 2.456986 2.815296 3.787853 4.146163 2.303424 2.252237 3.83904 4.350912 0 6.603149-1.27968 0.767808-2.252237 2.252237-0.409497 2.968858 3.787853 1.535616 0.972557 2.508173-0.102375 3.583104-1.074931 1.074931-1.842739 2.20105-2.047488 3.839041-0.614246 4.350912-4.350912 8.59945-6.705523 9.827943-7.626893 3.941415-15.509723 7.985204-24.262735 9.572007-0.563059-2.55936 1.27968-3.634291 2.252237-5.118721 2.508173-3.941415 5.272282-7.780455 7.729268-11.773056 1.791552-2.917671 2.661735-6.244839 1.996301-9.725569-0.460685-2.354611-1.842739-4.197351-4.197351-4.862784-2.764109-0.767808-3.429543 1.689178-4.350912 3.429542-2.610547 5.016346-5.11872 10.032692-7.678081 15.049038-0.972557 1.893927-1.689178 4.146163-4.504473 4.146164-0.665434-2.354611 0.92137-3.736666 1.586803-5.425844 1.996301-4.862784 4.094976-9.674381 6.193651-14.485979 1.330867-3.071232 0.35831-4.862784-2.661734-6.142464-4.913972-2.098675-7.115021-1.330867-8.957761 3.890228-3.378355 9.572007-6.603149 19.092827-11.670682 28.050587-2.610547 4.555661-6.142464 9.111322-5.784154 14.99785 0.102374 1.637991-1.228493 2.866483-3.020045 2.559361-2.764109-0.460685-5.784154-0.818995-7.370957-3.48073-1.535616-2.610547 1.023744-3.941415 2.405798-5.630593 3.48073-4.248538 2.764109-6.3984-2.405798-8.497075-1.689178-0.716621-3.122419-2.047488-4.709223-2.917671-9.930317-5.477031-20.116571-8.343514-31.377755-4.094976-5.988903 2.252237-10.186253 2.405799-13.206299-4.658036-3.173607-7.422144-9.469633-8.548263-15.151412-3.480729-1.791552 1.586803-3.071232 1.382054-3.992602-0.511873-0.870182-1.842739-1.382054-3.890227-1.791552-5.886528-1.433242-6.705524-0.767808-13.513422-1.023744-20.270132-0.102374-3.327168-1.074931-6.193652-5.067533-5.937716-3.327168 0.153562-6.3984 0.051187-6.04009-4.350912 0.409498-4.606848-4.606848-3.583104-5.835341-6.296026-0.153562-0.409498 0.153562-1.126118 0.460685-1.586803 3.429543-5.067533 3.071232-8.292327-4.555662-8.087579 3.736666-4.043789 6.859085-7.473332 10.032692-10.902874 0.614246-0.665434 1.893927-1.637991 0.972557-2.20105-6.756711-4.043789 0.614246-3.736666 1.586803-4.453286 2.508173-1.893927 5.732967-2.815296 8.292327-4.658036 2.405799-1.740365 7.473332-2.149863 6.398401-5.732967-0.870182-3.020045-5.477031-1.945114-8.59945-2.047488-0.204749 0-0.409498-0.409498 0 0 14.230042-10.391002 30.55876-10.8005 47.450537-9.162509 16.789403 1.637991 33.015746 4.402099 47.296976 14.434791-20.014196-12.284929-41.154511-10.391002-62.550763-5.835341 15.509723-0.102374 30.814696 1.382054 46.017296 5.067533 15.56091 3.736666 31.275381 6.705524 45.454237 14.690728 2.098675 1.177306 4.811597 1.637991 6.910272-0.153562 1.996301-1.689178 1.484429-3.890227 0.818995-6.244839-0.563059-1.893927-0.307123-4.094976-0.307123-6.142464 0-6.04009-0.35831-11.824244-3.634291-17.301275-4.146163-6.910272-7.67808-14.178855-11.517121-21.293876-1.177306-2.149863-2.149863-4.658035-4.248538-5.886529-12.182554-6.910272-17.301275-19.911822-25.951912-29.893326-3.531917-4.094976-6.654336-8.650637-9.264884-13.411048-8.497076-15.407348-8.343514-15.509723-25.542414-18.990452-0.204749-0.051187-0.35831-0.051187-0.563059-0.153562-4.453287-1.433242-6.859085-0.051187-8.138766 4.76041-2.764109 10.544564-6.04009 20.935566-9.162509 31.377756-1.791552 5.988903-2.354611 11.517121 4.299725 15.049037 3.173607 1.689178 2.303424 5.11872 3.327168 7.729268 1.228493 3.020045-0.409498 3.531917-2.252237 3.736666-8.753012 0.870182-16.482279 3.173607-19.860635 12.796801 0.614246-4.504474 1.637991-8.701825 2.661735-12.847988 0.409498-1.637991 1.023744-3.327168-1.023744-4.4021-4.453287-2.354611-14.025294 0.307123-16.891777 4.606849-1.535616 2.405799-2.610547 5.221095-5.477031 6.961459-0.870182-2.55936 0.614246-3.992602 1.433242-5.579405 2.815296-5.425844 2.866483-5.374656-3.429543-6.859085 7.31977-1.842739 14.178855-2.55936 20.986753-1.382055 4.811597 0.818995 6.859085-0.92137 7.780455-5.528218 2.764109-14.230042 5.732967-28.357711 8.650638-42.536565 0.511872-2.610547 0.35831-5.221095-0.102375-7.831643-0.460685-2.661735-1.586803-4.146163-4.350912-5.067533-12.284929-4.197351-23.443739-10.646938-34.602549-17.1989-1.330867-0.767808-3.83904-1.27968-2.661735-3.429543 0.870182-1.586803 2.661735-0.204749 3.992602 0.307124 10.135066 3.83904 20.218945 7.831642 30.456386 11.465933 10.186253 3.634291 10.391002 3.122419 12.131367-7.780455 2.917671-18.376206 5.221095-36.854786 6.756711-55.384554 1.637991-19.39995 6.04009-38.697526 2.610547-58.302224-0.35831-2.149863 0.409498-4.453287 0.409498-6.705524 0.051187-6.193652 0-12.43849 0-18.632142l-1.484429-0.153561c-0.665434 13.308673-5.425844 25.491227-9.776756 37.776156-4.299725 12.233742-8.855386 24.16036-17.813147 33.885928-1.740365 1.893927-2.712922 2.764109-3.736665-0.153561-1.433242-4.094976-4.76041-7.166208-5.630593-11.619495-0.563059-2.917671-2.508173-3.429543-4.094976-0.767808-4.350912 7.370957-10.032692 13.922919-11.875431 22.727118-1.27968 6.04009-3.83904 11.773057-5.784154 17.659585-7.626893 22.624744-16.226343 44.993552-26.259035 66.543364-12.336116 26.566158-26.822094 52.15976-40.386704 78.162859-15.91922 30.405199-34.500175 59.070032-58.609347 83.588703-3.992602 4.043789-6.296026 10.237441-14.127668 10.8005-4.248538 0.307123-6.244839 7.780455-11.261185 10.083879-0.563059-1.535616 0.35831-2.098675 0.92137-2.764109 20.986753-22.317621 40.130767-46.11967 57.380854-71.457336 13.206298-19.39995 26.617346-38.697526 36.035791-60.349712 1.382054-3.122419 2.764109-6.04009-2.201049-7.370957-1.433242-0.35831-2.968858-1.637991-2.098676-3.327169 1.126118-2.098675 2.456986-4.606848 5.016346-4.811597 1.791552-0.153562 1.740365 2.098675 2.098676 3.531917l0.818995 3.634292c3.48073-10.032692 8.292327-17.966708 10.032692-27.078031 0-3.122419 1.842739-5.579405 2.815296-8.394701 2.661735-7.831642 7.524519-14.946663 7.473331-23.648488-0.92137-2.098675 0.153562-3.941415 0.665434-5.937716 1.637991-6.091277 6.3984-10.595751 8.138765-16.584653 2.55936-8.855386 5.528218-17.608398 7.678081-26.514972 1.330867-5.477031 1.382054-11.209998 1.996301-16.84059-7.729268 10.851687-10.032692 23.904424-17.352462 34.653737 0.818995-4.658035 2.303424-9.008948 3.83904-13.411047 2.661735-7.67808 5.323469-15.612097 4.4021-23.648488-0.92137-8.087578 0.255936-15.663284 1.996301-23.392552 0.665434-2.917671 2.098675-5.835341-0.102375-9.264884-4.299725 12.592052-8.59945 25.184104-12.950362 37.724969 1.074931-12.643239 6.244839-24.006798 8.497075-36.24054 2.20105-11.875431 6.3984-23.494926 5.68178-35.831042-0.818995 0.35831-1.177306 0.818995-1.330867 1.330867-9.572007 39.311772-21.498625 77.906923-33.68118 116.450887-2.764109 8.804199-6.807898 17.045339-6.859085 27.078031-0.051187 6.347213-6.244839 12.694426-8.855386 19.553512-1.382054 3.685479-3.122419 7.166208-3.275981 11.209997-0.255936 6.551962-1.689178 13.513422-5.886529 17.915521-6.244839 6.500775-8.138765 14.946663-11.51712 22.368808-15.407348 34.03949-32.299125 67.311172-52.825194 98.688928-2.917671 4.402099-6.04009 8.650637-9.111322 12.950362 4.76041-10.493377 10.749313-20.116571 16.431092-29.944514 5.835341-10.083879 11.517121-20.270132 16.942964-30.55876 5.323469-10.135066 10.493377-20.372507 15.253787-30.814696 4.555661-10.032692 8.548263-20.32132 12.745613-30.507573-4.76041 3.685479-4.709223 3.583104-10.954061 1.126118-3.224794-1.27968-5.988903-0.511872-7.524519 2.815296-2.098675 4.504474-4.965159 5.579405-9.930317 4.4021-8.701825-2.047488-14.434791 2.917671-14.485979 11.721869-0.153562 15.407348-1.740365 30.814696-1.177306 46.222045 0.153562 3.736666 0 7.422144 0 11.15881-3.327168-15.151412-4.299725-30.507573-3.020045-45.812547 0.409498-4.658035-2.610547-7.473332-3.122419-11.005249-0.870182-5.835341-4.76041-6.142464-8.548263-7.985203-4.350912-2.047488-5.374656-0.204749-5.68178 3.531917-0.716621 9.367258-1.945114 18.734516-1.945113 28.101774 0 25.184104-2.661735 50.368208-0.153562 75.552312 0.204749 1.945114 0 3.941415 0 5.886529-0.35831 0.051187-0.716621 0.051187-1.074931 0.102374-1.535616-9.930317-3.071232-19.860635-4.811597-30.814696-1.484429 3.071232-0.255936 5.579405-2.508173 7.422144-3.787853-6.500775-2.815296-13.871732-4.965159-20.372507l-1.842739 0.153562v42.536566h-1.433242c-0.102374-1.842739-0.051187-3.685479-0.255936-5.528218-1.996301-17.301275-0.665434-34.551362 0.102375-51.80145 0.563059-13.871732 1.27968-27.794651 2.508172-41.615196 1.330867-14.332417 1.535616-14.332417-12.540864-13.922919-4.504474 0.153562-7.422144 2.149863-9.111322 6.142464-1.996301 4.555661-1.177306 8.138765 3.480729 10.646938 1.433242 0.818995 3.48073 1.586803 3.224794 4.4021-5.016346-0.767808-7.473332-5.528218-11.773057-7.115021-1.740365-0.614246-3.83904-2.405799-5.169907-1.228493-1.740365 1.586803-0.818995 4.248538-0.102375 6.3984 0.818995 2.354611 2.815296 3.327168 4.913972 4.248538 1.791552 0.818995 4.094976 0.563059 5.528218 2.712922-2.252237 1.740365-4.76041-0.511872-7.831642 0.972557 4.811597 2.456986 8.189953 5.886528 11.619495 9.213696 2.866483 2.764109 5.016346 7.831642 2.098675 9.827943-4.555661 3.071232-2.456986 5.067533-0.972557 7.934017 0.818995 1.535616 1.433242 3.429543-0.204748 4.606848-1.382054 0.972557-2.20105-0.818995-3.12242-1.63799-0.818995-0.716621-1.535616-1.893927-2.815296-1.228493-1.177306 0.614246-1.023744 1.945114-0.92137 3.020045 0.102374 1.330867 0.460685 2.610547 0.460685 3.941414 0 4.197351 2.303424 9.213697-4.043789 11.312372-1.382054 0.460685-0.818995 2.354611-0.614246 3.583104 1.996301 11.875431 4.146163 23.699675 6.04009 35.575107 0.716621 4.606848 3.020045 5.886528 7.422144 5.11872 3.48073-0.614246 7.063834-0.716621 10.493377 0.563059-2.968858 0.92137-5.937716 1.177306-8.855386 1.433242-10.237441 0.870182-10.339815 0.92137-12.489678-9.213697-1.996301-9.469633-3.685479-19.04164-5.477031-28.562459-2.610547 9.162509-4.913972 18.12027-9.162509 26.668533-3.787853 7.67808-6.910272 10.032692-15.458535 9.674381-9.827943-0.409498-19.655886-0.102374-30.354012-0.102374 1.586803 1.893927 2.405799 3.071232 3.429543 4.094976 1.945114 1.842739 1.228493 3.173607-0.56306 4.555661-6.193652 4.862784-6.244839 5.221095-0.665433 11.005249 1.382054 1.484429 3.224794 2.55936 4.913971 3.736666 4.913972 3.429543 10.186253 6.449588 14.690728 10.288627 8.087578 6.910272 15.151412 15.049038 24.467483 20.474882 1.893927 1.074931 4.350912 2.20105 4.043789 6.449587-10.135066-5.323469-17.813147-13.00155-27.231592-17.813146 2.303424 2.764109 5.067533 4.965159 7.524519 7.473331 1.586803 1.586803 4.965159 3.071232 3.173606 5.732967-1.586803 2.303424-3.275981-1.637991-5.272282-1.382054-0.307123 0.051187-0.614246 0.307123-1.228493 0.614246 0.35831 2.303424 2.661735 2.917671 3.941415 4.350912 0.716621 0.818995 1.791552 1.689178 0.716621 2.815296-0.767808 0.767808-1.791552 0.204749-2.55936-0.307123-4.146163-2.866483-8.189953-5.937716-12.489678-8.650637-2.354611-1.484429-5.835341-4.965159-7.780455-2.047488-2.20105 3.275981 2.866483 4.197351 4.811597 6.091277 4.862784 4.658035 11.209998 7.831642 15.612097 14.690727-4.606848-0.409498-6.705524-3.020045-9.213696-4.709222-5.425844-3.634291-10.749313-7.524519-16.175156-11.209998-1.27968-0.870182-2.968858-1.382054-4.094977-0.051187-1.382054 1.689178 0.460685 2.661735 1.433242 3.634291 1.074931 1.023744 2.508173 1.740365 3.48073 2.866484 2.55936 2.968858 6.96146 4.248538 8.548263 9.008947-5.886528-0.307123-8.292327-7.115021-14.383604-7.012646 1.177306 3.378355 3.634291 4.350912 5.169907 6.142464 1.330867 1.586803 4.862784 2.764109 3.173607 4.965159-1.433242 1.842739-3.378355-1.177306-5.016346-2.252237-2.354611-1.484429-4.606848-3.224794-6.96146-4.76041-1.484429-0.972557-3.378355-1.740365-4.504474 0.051187-1.126118 1.689178 0.92137 2.508173 1.945114 3.48073 1.689178 1.637991 4.350912 2.20105 5.630592 5.067533-3.275981 0.051187-5.579405-1.586803-7.831642-3.122419-4.146163-2.866483-7.422144-1.945114-10.902874 1.433241-4.402099 4.350912-8.036391 9.469633-14.332417 11.977806-3.327168 1.330867-7.67808 2.098675-9.827943 5.016346-3.378355 4.555661-7.524519 5.784154-12.745613 6.603149-10.135066 1.637991-12.489678 0.153562-12.131368-10.288628 0.35831-10.339815 1.074931-20.628443 1.637991-30.917071 0.102374-1.945114 0.460685-3.992602-1.484429-5.835341-5.272282 35.779855-4.862784 70.484779 10.186253 103.551712 1.126118-2.047488-1.586803-4.350912-0.204748-6.654336 1.177306 0.204749 1.535616 1.126118 1.893926 1.996301 4.862784 12.387303 12.540865 22.829493 21.037941 33.066933 24.928168 29.893327 52.466883 56.613047 85.482629 77.395051 1.740365 1.074931 3.429543 2.303424 4.862784 3.736666 1.586803 1.586803 3.071232 3.378355 4.146164 5.272282 1.945114 3.531917 1.740365-3.583104 3.378355-0.614246 2.712922 4.913972 8.394701 4.453287 12.438491 7.012646 15.612097 10.032692 32.196751 18.376206 48.218345 27.692277 6.04009 3.531917 12.336116 4.402099 18.888078 2.661735 17.557211-4.606848 35.267983-8.087578 53.388253-9.418445 7.31977-0.563059 14.537166-2.047488 20.935566-5.784154 10.186253-5.988903 18.939265-14.076481 30.55876-18.017896 8.394701-2.866483 15.91922-8.189953 24.928168-9.776756 1.023744-0.153562 3.634291-0.102374 2.55936-1.535616-2.20105-3.020045 0.870182-2.815296 1.740365-3.327168 6.3984-3.83904 13.308673-6.910272 18.888078-12.08018 0.870182-0.818995 1.945114-2.764109 3.378356 0.511872 1.842739 4.197351 9.008948 3.787853 11.414746-0.204749 0.92137-1.535616 2.354611-2.917671 2.047488-5.169907-1.740365 1.177306-3.327168 1.945114-4.709223-0.358311-1.228493-1.945114-0.255936-3.173607 1.228493-4.299725 1.023744-0.818995 2.098675-1.586803 3.173607-2.354611 13.769358-9.776756 26.71972-20.526068 36.701225-34.346613 9.52082-13.206298 19.297576-26.310222 27.641089-40.386704 2.20105-3.685479 4.555661-5.272282 9.469633-4.76041 5.323469 0.563059 11.261185 1.791552 16.482279-0.716621 6.3984-3.071232 12.694426-6.244839 18.273832-10.902874 8.906573-7.473332 18.017896-14.690727 27.129218-21.908123 6.96146-5.477031 14.076481-10.749313 21.396251-16.328718 0.563059 2.815296-1.074931 4.146163-1.740365 5.835342-4.606848 11.619495-13.257486 21.396251-15.151413 34.3978-0.460685 3.275981 1.177306 6.244839 0.051188 9.367258-0.614246 1.637991-2.252237 3.83904 0 5.016346 2.55936 1.382054 4.043789-1.074931 5.425843-2.764109 1.177306-1.433242 2.149863-3.071232 3.275981-4.606848 2.712922-3.787853 5.425844-7.524519 8.087578-11.312372-2.047488 11.465934-6.756711 21.652187-11.107623 31.992002-5.937716 14.178855-12.899175 27.9994-17.966708 42.536566-3.992602 11.414746-9.316071 22.112872-14.434791 32.964559-0.870182 1.893927-3.736666 3.83904-1.535616 5.886528 2.20105 2.047488 4.504474-0.409498 6.500774-1.689178 8.087578-5.169908 15.407348-11.261185 22.471183-17.710772 18.734516-17.147713 35.779855-35.882229 49.702774-57.176106 12.182554-18.632142 20.986753-39.055836 29.790952-59.377156 20.116571-46.324419 34.96086-94.44039 45.556611-143.836041l6.449588-30.354011c0.716621-3.327168 0.35831-6.193652-3.787853-6.603149-14.383604-1.484429-25.849538-9.367258-37.264284-17.198901-3.378355-2.303424-4.913972-2.405799-5.32347 1.996301-1.382054 13.666983-4.402099 27.07803-7.012646 40.540265-0.511872 2.661735-1.27968 5.323469-2.149863 8.753012-1.484429-2.815296-0.716621-4.606848-0.307123-6.3984 3.224794-14.485979 5.988903-29.074331 7.268583-43.918621 0.614246-6.96146-1.535616-10.493377-9.213697-13.71817 0 7.780455 0.051187 15.253787 0 22.727118-0.051187 7.31977 0.102374 14.63954-0.767808 21.95931-0.870182 7.473332-1.074931 15.100225-0.665434 22.52237 0.409498 7.524519-0.614246 14.230042-2.968857 21.03794 0.818995-26.566158 2.661735-53.029943 2.098675-80.15916-2.610547 2.047488-1.382054 4.555661-3.071232 6.551962-0.204749-2.405799-0.92137-4.555661-0.511872-6.449588 2.712922-11.824244-1.740365-21.037941-8.497076-30.507573-8.497076-11.875431-7.422144-14.383604 4.658036-22.368808 3.173607-2.098675 4.606848-4.402099 4.299725-8.343514-0.307123-3.736666 0.051187-7.524519 0.307123-11.261184 0.255936-3.941415-0.972557-6.3984-5.221095-7.115022-4.606848-0.767808-9.162509-1.996301-13.71817-2.866483-8.957761-1.791552-13.308673-7.012647-12.950363-16.021595 0.153562-3.736666 0.665434-7.524519 1.330868-11.15881 2.764109-14.63954 5.528218-29.27908 14.485978-41.71757 4.453287-6.142464 10.339815-11.619495 8.394701-20.782005 2.149863 4.402099 4.709223 5.11872 7.831642 1.893927 2.20105-2.252237 1.177306-4.965159 0.56306-7.473332-12.131367-49.395651-29.739765-96.590252-54.514372-141.020745-0.767808-1.330867-1.945114-2.610547-1.228493-5.425843 6.756711 11.619495 13.513422 22.112872 18.990453 33.425243 17.403649 36.035791 29.842139 73.811947 39.772457 112.509473 0.818995 3.224794 1.433242 6.142464 6.04009 5.528218 2.20105-0.307123 3.83904 1.893927 5.528218 3.429542 8.855386 8.087578 16.584654 17.1989 24.211547 26.668533 0.92137-1.637991-0.153562-2.508173-0.511872-3.48073-7.780455-19.75826-14.946663-39.72127-18.632142-60.810397-1.228493-7.063834 0.409498-11.005249 6.603149-14.588353 2.917671-1.689178 5.988903-3.071232 9.162509-4.248538 9.930317-3.583104 9.981505-3.531917 5.425844-12.899175 1.842739 1.689178 3.531917 3.583104 5.221095 5.425844 3.275981 3.48073 7.67808 4.248538 11.261184 1.996301 3.224794-2.047488 0.102374-5.528218-0.921369-8.087579-10.186253-26.156661-23.085429-50.982454-37.622595-74.938065-3.173607-5.221095-2.866483-5.835341 3.020045-5.323469 16.072782 1.330867 27.129218-6.500775 35.88223-18.939265 1.791552-2.55936 5.067533-5.528218 3.685478-8.343515-1.330867-2.661735-4.76041 1.484429-7.985203 0.307124 3.429543-1.535616 6.449588-2.917671 9.469632-4.299725 3.48073-1.637991 3.275981-6.3984 6.705524-8.036391l-0.102375-0.051187c-4.811597 26.054286-22.675931 41.35926-48.67903 41.768757-0.409498 2.149863 1.228493 3.429543 2.20105 4.965159 13.411047 21.805749 25.08173 44.532867 34.346613 68.334916 3.634291 9.264884 8.189953 14.741915 18.376206 15.458536 14.076481 1.023744 20.782004 9.776756 23.23899 23.23899 2.456986 13.666983 2.098675 27.333967 2.149863 41.00095 0 1.893927-0.563059 3.941415 0.767808 6.3984 1.791552-3.173607 3.224794-5.784154 4.76041-8.343514 4.658035-7.985204 9.981505-15.509723 17.761959-20.782005 8.087578-5.528218 16.072782-4.299725 22.419995 3.275982 2.917671 3.48073 4.811597 7.626893 6.296026 11.875431 1.740365 4.965159 3.429543 9.930317 5.118721 14.895476v62.090077c-4.094976 1.945114-8.445889 2.917671-12.899175 3.736666-3.173607 0.563059-6.142464 1.637991-8.855387 3.378355a3.48073 3.48073 0 0 0-1.433241 2.252237c-0.204749 1.126118 0.92137 1.689178 1.842739 1.637991 7.166208-0.255936 14.537166 2.149863 21.396251-1.945114v3.378356c-6.449588 2.764109-13.462234 0.204749-20.782005 2.047488 7.370957 4.504474 14.076481 8.548263 20.782005 12.643239v2.252237c-3.787853-1.023744-7.217396-2.610547-10.493377-5.016346-5.579405-4.146163-11.926618-7.012647-18.47858-9.367258-2.917671-1.023744-5.784154-1.177306-8.59945 0.716621 0.460685 0.511872 0.767808 1.023744 1.177305 1.27968 10.442189 5.886528 20.526068 12.336116 30.609948 18.785703 1.996301 1.27968 3.020045 2.55936 3.327168 4.709223 2.815296 20.782004-5.272282 37.571407-19.451137 51.699075-5.630592 5.630592-10.186253 4.76041-14.997851-1.689177-9.418445-12.694426-17.352462-26.259035-24.211547-40.489078-2.149863-4.402099-4.402099-8.753012-6.603149-13.103924-0.255936 2.866483 0.818995 5.528218-0.563059 7.934016-2.252237 3.992602-1.023744 7.524519 0.716621 11.261185 3.173607 6.756711 6.705524 13.35986 10.032692 20.014196a76.064184 76.064184 0 0 0 18.273831 23.80205c9.469633 8.343514 17.352462 7.31977 24.109173-3.224794 0.92137-1.433242 1.637991-2.968858 2.405798-4.453287 4.299725-8.548263 8.548263-17.096526 12.796801-25.644788v9.008947c-1.023744 1.996301-2.047488 3.992602-3.122419 5.988903-4.453287 8.24114-7.626893 17.1989-14.690728 23.853237-2.508173 2.354611-4.965159 3.378355-8.548262 2.866483-7.31977-1.074931-13.615796-3.890227-18.939266-9.008948-7.268583-6.96146-12.847988-15.151412-17.506023-24.006798-1.330867-2.610547-2.815296-5.11872-4.197351-7.67808-0.460685 0.153562-0.92137 0.255936-1.433242 0.409497 1.791552 20.577256 3.531917 41.154511 2.866484 61.782955-4.094976-18.222644-2.866483-36.957161-6.193652-56.408298-1.484429 3.020045-1.27968 5.11872-1.177305 7.063834 0.255936 5.272282 1.27968 10.544564 0.767808 15.714471-1.330867 13.71817-0.511872 27.385154-0.56306 41.103324-0.102374 22.573557-1.689178 45.095926-3.378355 67.567108-2.252237 30.609948-6.551962 60.912772-11.72187 91.164409-0.511872 2.917671-1.382054 5.835341 2.047489 7.985204 1.689178 1.023744 1.27968 2.866483-0.409498 4.197351-5.835341 4.453287-5.988903 5.425844-1.586803 11.261184 0.818995 1.126118 1.27968 3.122419 3.173606 2.559361 1.484429-0.409498 1.228493-2.149863 1.535616-3.378356 5.016346-18.580955 7.115021-37.673782 9.623195-56.664234 5.11872-39.004649 6.807898-78.265234 5.988902-117.628193-0.051187-1.893927-0.665434-4.094976 1.126119-5.835341 2.252237 3.787853 2.252237 3.787853 2.303424 10.8005 0.102374 50.112272-2.610547 99.917421-11.875431 149.313072-6.910272 36.803599-15.356161 73.095326-26.873282 108.823994-9.674381 29.893327-23.802049 57.073732-41.71757 82.564958-2.354611 3.378355-4.658035 5.169908-8.753012 2.456986-4.043789-2.712922-5.732967-5.732967-3.173607-10.391002 3.122419-5.784154 6.193652-11.568308 9.16251-17.454836 11.363559-22.675931 23.23899-45.095926 31.070632-69.358661 11.15881-34.551362 19.553512-69.819345 25.951912-105.5992 10.288628-57.534416 14.844289-115.580705 14.690727-173.985304-0.051187-11.261185-2.55936-22.522369-1.023744-33.937115 0.051187-0.409498 0-1.228493-0.972557-0.92137-1.433242 2.815296-0.511872 5.886528-0.921369 8.804199-5.374656 39.311772-12.592052 78.265234-22.112872 116.860385-15.100225 61.322269-36.803599 119.931617-66.492177 175.572107-13.974106 26.207848-30.20045 51.033642-49.395651 73.811947-4.965159 5.886528-9.674381 11.977806-15.56091 17.045339-2.20105 1.945114-5.374656 4.094976-7.370957 1.433241-3.378355-4.402099-7.985204-6.500775-12.284929-9.316071-2.456986-1.586803-2.968858-3.83904 0.818995-4.350912 3.941415-0.511872 6.347213-2.968858 8.59945-5.784154 11.926618-14.997851 24.006798-29.842139 34.448988-45.914921 6.091277-9.367258 11.670682-19.04164 17.506024-28.56246-3.685479 2.252237-6.449588 5.169908-9.111322 8.189953-2.764109 3.071232-5.425844 6.193652-8.24114 9.264884-26.822094 29.074331-57.892727 52.569258-92.955961 70.689527-2.047488 1.074931-4.709223 4.453287-6.603149 1.433242-1.484429-2.354611 2.047488-4.350912 3.890227-6.142464 0.818995-0.767808 1.740365-1.382054 2.610547-2.098676 5.528218-4.555661 8.701825-10.954061 12.796801-16.687028-6.3984 4.606848-12.336116 9.674381-18.273831 14.690727-6.04009 5.11872-12.643239 9.367258-19.246389 13.666984-6.756711 4.402099-13.666983 8.548263-20.270132 13.103924-6.347213 4.402099-13.257486 7.268583-20.423694 9.87913 13.820545-8.957761 26.71972-18.939265 39.465333-29.586204-1.740365-1.228493-2.712922-0.35831-3.685478 0.102375-16.942964 7.524519-33.425244 15.970407-49.753962 24.774606-4.453287 2.405799-8.804199 6.244839-14.485978 2.610548-0.511872-0.307123-1.484429-0.051187-2.149863 0.153561-8.804199 2.508173-12.387303 8.906573-9.827943 17.710772 1.996301 6.910272 3.020045 13.820545 0.511872 20.935567-0.255936-5.11872-1.637991-9.981505-2.815296-14.895477-0.563059-2.303424-1.382054-2.917671-3.941415-2.098675-4.197351 1.382054-7.268583 4.709223-11.312372 6.091277-8.59945 2.968858-15.304974 8.548263-21.089127 15.253787-2.764109 3.224794-5.323469 6.142464-10.391003 2.610547 1.842739 10.339815 0.409498 19.39995-2.252236 28.306524-0.563059 0-1.074931-0.051187-1.637991-0.051188v-25.900724c-2.252237 1.586803-1.893927 3.020045-2.047488 4.248537-1.330867 9.87913-5.630592 13.769358-14.997851 16.994152-10.954061 3.736666-21.754561 8.087578-26.412596 20.628443-1.996301 5.374656-5.732967 10.237441-12.847988 9.930317-1.637991-0.051187-4.299725 1.382054-2.405799 2.917671 4.709223 3.736666 0.409498 4.913972-1.177306 7.217395-2.354611 3.327168-3.787853 7.370957-8.753011 7.831643-1.791552 0.153562-1.791552 2.098675-1.637991 3.685478 0.153562 2.149863-0.767808 3.583104-2.968858 2.610548-3.787853-1.689178-4.197351 0.92137-4.555661 3.378355-0.665434 4.094976-0.409498 8.24114-0.153561 12.387303 0.102374 1.535616 1.023744 3.83904-1.382055 4.146164-2.20105 0.255936-3.992602-1.228493-4.350912-3.583105-0.307123-2.20105-0.204749-4.504474-0.255936-6.75671-0.153562-5.528218-0.563059-10.954061-3.378356-15.970408 0.92137 5.528218 1.074931 11.005249 1.27968 16.533467 0.102374 2.917671 0.716621 5.016346-3.224793 5.630592-2.149863 0.307123-4.453287 1.791552-2.047488 4.76041 0.972557 1.228493 0.35831 2.55936-0.972557 2.20105-3.736666-1.023744-6.091277 1.996301-8.701825 2.610547-5.169908 1.177306-6.603149 3.890227-7.882829 7.985204-0.511872 1.484429-1.689178 3.173607-3.020045 3.890227-4.248538 2.303424-3.787853 5.425844-2.303424 9.008948H161.751664c-11.926618-11.414746-28.613647-13.103924-41.564009-4.299725-1.689178 1.074931-1.945114 2.661735-2.303424 4.248538z m764.378506-616.293927c2.610547 2.098675 2.252237 5.016346 1.842739 7.780455-0.716621 4.862784-0.716621 9.725569-0.563059 14.588353 0.051187 2.303424 0.460685 4.504474 2.354611 6.091277 9.316071 7.831642 19.195201 14.895476 29.944514 20.67963 3.224794 1.740365 5.579405 1.023744 7.31977-2.354611 2.712922-5.425844 4.76041-11.005249 5.630592-16.994151 2.712922-18.939265 5.272282-37.87853 8.036391-56.817796 0.614246-4.197351-0.92137-4.76041-4.19735-3.122419-17.557211 8.753012-35.370357 16.994151-50.265834 30.200449-1.996301 1.382054-4.146163 2.55936-5.886528 4.197351-5.886528 5.374656-5.937716 9.111322-0.511872 14.63954 1.177306 1.177306 2.303424 2.764109 4.19735 2.149863 1.996301-0.614246 1.996301-2.610547 2.047489-4.248538 0.102374-5.579405 0.051187-11.15881 0.051187-16.789403zM97.255788 231.87803c-0.307123-0.102374-0.614246-0.255936-0.921369-0.35831-0.92137 1.586803-1.791552 3.173607-2.712922 4.76041-6.296026 11.15881-10.339815 23.290177-15.407348 35.012047-21.293877 49.293277-35.575106 100.83879-45.710173 153.510422-7.063834 36.59885-10.954061 73.556011-11.15881 110.871482-0.051187 10.135066-0.409498 20.577256 2.405799 30.20045 7.524519 25.79835 24.621045 45.658985 42.28063 64.956561 0.92137 1.023744 2.20105 2.661735 3.787853 1.689178 1.484429-0.92137 0.665434-2.764109 0.460684-4.197351-3.992602-28.869583-7.115021-57.790352-9.264883-86.864684-2.968858-40.07958-1.27968-79.954411 1.228492-119.880429 0.767808-12.336116 3.122419-24.621045 3.685479-36.957161 2.047488-45.403049 11.261185-89.372857 24.876981-132.574856 2.149863-6.756711 4.299725-13.462234 6.449587-20.167759z m921.983904 107.749063c-1.842739-15.407348-4.965159-35.626293-11.824243-55.07743-2.55936-7.268583-7.012647-8.189953-12.592052-2.917671-4.965159 4.709223-8.394701 10.493377-11.72187 16.431092-9.316071 16.84059-15.868033 34.858485-22.471182 52.876381-2.508173 6.910272-0.972557 8.548263 5.835341 8.343514 1.689178-0.051187 3.327168 0.307123 5.016346 0.409498 11.363559 0.665434 22.675931 2.55936 34.141864 0.870182 13.820545-1.996301 13.820545-1.842739 13.615796-20.935566zM1019.034944 406.324019c0.204749-4.913972-1.484429-8.59945-5.988903-11.15881-7.473332-4.248538-14.63954-9.060135-22.061685-13.411048-8.394701-4.913972-16.942964-9.572007-26.003099-13.155111-1.842739-0.716621-4.862784-2.149863-5.425843 0.307123-1.27968 5.937716-5.937716 11.005249-3.173607 18.171458 8.292327 21.293877 19.246388 41.103324 31.83844 60.042589 4.248538 6.3984 6.807898 7.012647 12.387304 1.484429 11.72187-11.517121 17.76196-25.79835 18.427393-42.28063z m-142.76111-103.091027c-0.460685 1.484429-0.818995 1.996301-0.767808 2.508173 2.354611 18.222644 4.76041 36.445289 7.115021 54.667933 0.511872 4.043789 2.968858 5.835341 6.756711 6.193651 4.248538 0.409498 8.548263 0.92137 12.847988 1.074932 8.59945 0.204749 17.147713 0.255936 25.747163 0.204748 4.146163 0 4.913972-1.996301 2.55936-5.323469-1.27968-1.842739-2.55936-3.736666-4.043789-5.425843-12.387303-14.025294-24.723419-28.050587-37.315471-41.92232-3.787853-4.146163-8.292327-7.729268-12.899175-11.977805zM551.183906 193.9995c-1.27968 0.460685-1.689178 1.535616-1.893926 2.55936-2.456986 11.005249-6.654336 21.498625-10.032692 32.247938-6.654336 21.089128-13.052737 42.28063-20.065384 63.267383-7.524519 22.471182-13.103924 45.403049-19.144014 68.28373-0.409498 1.535616-1.228493 3.83904 0.665434 4.555661 1.996301 0.767808 2.661735-1.637991 3.275981-3.071233 9.213697-21.345064 18.683329-42.63894 27.385154-64.188752 6.807898-16.891777 12.847988-34.141865 13.922919-52.569258 0.92137-15.049038 3.583104-29.790952 6.347213-44.584054 0.35831-2.098675 1.330867-4.350912-0.460685-6.500775z m-322.47938 280.352312c-1.791552 16.379905 0.204749 32.555061-2.303424 48.525469-3.071232-14.076481-1.126118-28.511272-2.405798-43.611497-3.327168 4.555661-5.784154 8.497076-8.855387 11.926618-8.087578 9.111322-14.485979 18.990452-16.27753 31.377755-0.255936 1.637991-0.409498 3.531917-1.330867 4.862785-3.83904 5.630592-0.153562 10.493377 1.382054 15.509722 0.614246 2.047488 2.764109 2.354611 4.76041 2.047488 8.138765-1.27968 16.226343-2.661735 24.313921-3.890227 5.374656-0.818995 6.807898-3.890227 6.449588-9.162509-1.126118-17.250087-3.736666-34.397801-3.327168-51.699076 0.102374-1.893927 0.767808-4.197351-2.405799-5.886528z m160.983754-137.437641c-1.27968-2.149863 2.303424-6.347213-2.508173-7.166208-4.453287-0.767808-6.859085 1.996301-7.882829 6.193652-0.255936 1.074931-0.716621 2.149863-1.023744 3.224793-3.429543 12.08018-7.063834 24.109173-10.237441 36.291727-3.122419 11.977806-5.784154 24.057986-8.445888 36.189353-0.460685 2.047488-1.791552 5.937716 2.20105 5.425844 8.189953-1.074931 15.458535 1.996301 22.983054 3.83904 3.531917 0.870182 3.736666-0.409498 3.275981-3.327168-0.818995-5.732967-1.586803-11.517121-1.842739-17.352462-0.409498-9.725569-0.255936-9.725569-9.674382-10.391002-4.094976-0.307123-5.374656-2.968858-2.968858-6.500775 1.689178-2.508173 4.555661-3.173607 7.063834-4.299725 3.48073-1.484429 6.449588-3.429543 6.500775-7.626894 0.102374-11.517121 1.586803-22.88068 2.55936-34.500175z m328.928968-180.537265c1.689178-1.177306 2.55936-1.893927 3.531917-2.405799 1.433242-0.767808 3.020045-2.20105 4.658036-1.074931 1.842739 1.330867 0.35831 3.071232-0.255936 4.555661-0.870182 2.047488 0.563059 3.531917 1.074931 5.272282 1.074931 3.634291 2.20105 7.575706-2.661735 9.52082-6.091277 2.405799-8.189953 12.489678-2.91767 16.533466 3.531917 2.712922 5.067533 5.835341 4.19735 9.623195-2.354611 10.186253 2.456986 15.91922 11.158811 19.553511 1.023744 0.409498 1.945114 1.126118 2.815296 1.84274 3.020045 2.508173 5.732967 1.689178 8.650637-0.307124 3.122419-2.098675 3.122419-4.709223 2.149863-7.882829-3.429543-11.15881-6.500775-22.368808-10.135067-33.425244-5.784154-17.454836-12.489678-34.602549-19.809447-51.494326-0.870182-2.047488-1.689178-4.606848-4.811597-2.508173-1.228493 0.870182-5.579405 14.946663-4.913972 16.328718 0.460685 0.972557 1.228493 1.996301 2.149863 2.456986 4.965159 2.764109 6.244839 7.115021 5.11872 13.411047z m216.112372 189.648588c1.074931-0.818995 0.716621-1.586803 0.563059-2.252237-3.583104-21.498625-6.859085-42.997251-10.8005-64.444689-2.20105-11.977806-3.634291-24.16036-7.67808-35.779855-0.716621-2.047488-1.074931-4.402099-4.094976-4.606848-6.96146-0.460685-10.493377 3.173607-9.16251 10.135066 4.965159 26.054286 12.592052 51.443139 21.24269 76.422494 2.508173 7.115021 5.221095 14.332417 9.930317 20.526069zM502.095379 287.620895c-2.149863-2.405799-0.614246-4.504474-0.255936-6.603149 1.740365-9.213697 3.83904-18.427393 2.149862-27.845839-0.511872-2.917671-0.153562-7.934016-3.48073-7.831642-2.968858 0.051187-2.917671 5.067533-3.429542 8.138765-3.173607 19.246388-7.370957 38.288028-11.773057 57.227293-1.126118 4.913972-2.149863 9.87913-3.122419 14.895477-0.35831 1.945114-1.27968 4.453287 0.818995 5.681779 2.098675 1.228493 3.173607-1.27968 4.555661-2.354611 2.508173-1.996301 4.555661-4.402099 5.835341-7.422145 2.610547-6.04009 5.272282-12.08018 8.138765-18.785703 1.842739 3.429543-1.126118 6.910272 2.252237 10.288628 5.221095-17.506023 11.209998-33.937116 13.666984-51.44314-4.299725 5.221095-4.402099 12.182554-7.626894 18.273832-2.252237-3.531917 1.484429-6.603149-0.716621-9.981505-4.606848 5.272282-2.456986 12.796801-7.012646 17.76196z m207.052236 207.154611c-0.204749-4.402099-2.55936-7.473332-6.142464-9.469632-6.500775-3.685479-13.769358-4.76041-21.03794-4.811598-6.091277 0-9.316071 5.374656-6.60315 11.209998 2.55936 5.579405 5.835341 10.902874 10.954062 14.63954 3.787853 2.764109 7.780455 3.48073 12.028993 1.023744 5.016346-2.917671 9.981505-5.988903 10.800499-12.592052z m170.862885-135.953212c-1.740365-18.580955-4.658035-36.342914-8.445889-53.951312-0.35831-1.586803-0.35831-3.787853-2.354611-4.043789-2.303424-0.307123-2.712922 2.149863-3.787853 3.583104-3.83904 5.374656-2.047488 11.107623-1.382055 16.891777 1.330867 12.131367 2.508173 24.262734 3.787853 36.394102 0.460685 4.299725 4.248538 6.96146 8.855387 6.500775 3.890227-0.460685 3.173607-3.48073 3.327168-5.374657zM283.218898 551.900425c0.972557-4.146163 1.996301-8.24114 2.866483-12.387303 0.460685-2.20105 0.563059-4.76041 3.224794-5.425844 3.173607-0.767808 2.917671-2.917671 2.610547-5.221095-0.767808-6.142464-1.382054-12.284929-2.405798-18.376205-2.252237-13.206298 1.27968-15.663284-14.383604-8.497076-0.35831 0.153562-0.665434 0.307123-1.023744 0.409497-3.992602 1.126118-5.477031 3.941415-5.68178 7.985204-0.511872 9.87913 3.890227 17.096526 12.233742 21.601 3.992602 2.149863 4.76041 4.555661 3.83904 8.548263-0.972557 3.634291-2.712922 7.063834-1.27968 11.363559z m282.297425-185.144114c12.643239-18.580955 45.658985-106.162259 43.611497-115.683079-3.787853 6.859085-6.296026 13.666983-8.445888 20.628443-0.563059 1.842739-0.818995 3.890227-3.122419 4.19735-3.020045 0.409498-3.787853 2.55936-4.555662 5.016346-8.804199 28.716021-17.403649 57.483229-27.487528 85.84094zM368.343217 458.688528c-1.126118 0.102374-2.815296 0.153562-4.453287 0.460685-7.934016 1.484429-9.674381 6.500775-4.453287 12.745613 1.535616 1.842739 3.224794 3.634291 4.76041 5.477031 4.76041 5.835341 10.698125 6.910272 17.608398 4.658036 8.394701-2.661735 10.493377-11.414746 4.094976-17.557211-4.709223-4.555661-10.698125-5.68178-17.55721-5.784154zM938.671035 397.929318c-1.689178 1.586803-1.740365 3.173607-1.893927 4.606848-1.791552 17.76196-5.221095 35.216796-8.650637 52.671632-0.716621 3.736666-1.330867 7.268583-3.531917 10.44219-0.716621 0.972557-2.149863 2.405799-0.511872 3.327168 2.405799 1.330867 5.067533 2.661735 7.934016 2.303424 2.764109-0.307123 3.173607-2.917671 3.583104-5.11872 1.637991-8.855386 3.122419-17.710772 4.811598-26.566159 0.665434-3.429543-1.945114-6.705524-0.56306-9.930317 2.866483-6.756711 1.382054-14.025294 2.917671-20.884379 0.818995-4.043789-1.228493-7.524519-4.094976-10.851687z m-5.835342-152.384304c-0.307123 7.524519 2.20105 14.434791 3.378356 21.549812 4.504474 26.668533 7.31977 53.541815 7.729268 80.619845 0 1.074931-0.460685 2.456986 0.818995 2.968858 1.177306 0.460685 2.149863-0.614246 2.815296-1.433242 0.818995-0.972557 1.740365-2.149863 1.893927-3.327168 1.228493-7.780455 2.968858-15.458535 1.740364-23.443739-2.917671-18.939265-7.370957-37.571407-12.131367-56.101175-1.791552-7.012647-4.146163-13.871732-6.244839-20.833191z m19.092827 62.141264c1.074931-22.573557-0.102374-44.83999-6.347213-66.594551-0.409498-1.382054-1.330867-2.712922-2.303424-3.787853-2.354611-2.456986-5.579405-2.866483-8.24114-1.382054-2.610547 1.433242-0.614246 4.094976 0.051187 6.091277 5.68178 17.301275 10.595751 34.756111 14.025294 52.671632 0.818995 4.350912 1.842739 8.701825 2.815296 13.001549z m-91.471532 11.773057l-1.484429-0.153561c-5.425844 10.902874-10.442189 22.010497-11.261184 34.551362-0.204749 2.815296 1.433242 4.555661 4.19735 5.169907 2.20105 0.511872 4.402099 0.92137 6.551962 1.484429 4.350912 1.177306 6.04009-0.818995 5.68178-4.913971-0.460685-5.988903-1.023744-11.977806-1.637991-17.966709-0.665434-6.091277-1.382054-12.131367-2.047488-18.171457z m-200.090777 499.27998c-16.687028 9.52082-33.527618 18.376206-51.391952 25.030543-1.177306 0.460685-2.866483 1.023744-1.945114 2.712921 1.074931 1.945114 2.764109 4.606848 5.11872 3.429543 5.477031-2.764109 10.851687-3.531917 16.738216-2.149863 0.716621 0.153562 1.791552-0.511872 2.456986-1.074931 10.237441-8.701825 20.526068-17.352462 29.023144-27.948213z m-294.019295-284.03779c7.063834 0.307123 14.793102-6.807898 13.922919-12.592052-0.35831-2.456986-1.382054-4.504474-4.094976-4.4021-2.712922 0.051187-3.378355 2.098675-2.917671 4.4021 0.716621 3.224794-1.074931 3.941415-3.685479 4.094976-3.275981 0.204749-6.296026-0.409498-8.855386-2.661735-2.815296-2.508173-6.193652-3.429543-9.776755-3.531917-4.555661-0.153562-7.063834 2.815296-7.370958 7.985204-0.307123 4.913972 2.354611 6.04009 6.551962 6.091277 5.425844-0.051187 10.8005 0.35831 16.226344 0.614247z m-49.293277-3.634292c-5.835341-0.563059-8.906573-3.634291-12.028993-7.831642-4.606848-6.244839-4.094976-13.411047-6.142464-20.116571-0.614246-2.098675-1.023744-4.811597-4.146164-4.146163-2.508173 0.563059-2.712922 2.917671-2.456985 5.016346 1.27968 9.623194 2.661735 19.246388 3.992601 28.92077 0.204749 1.484429 0.563059 2.917671 2.252237 3.583104 3.787853 1.433242 15.202599-1.535616 18.529768-5.425844zM240.324021 424.290727c-0.307123 0.409498-0.818995 0.818995-0.870182 1.27968-0.204749 1.27968-0.204749 2.610547-0.307123 3.890228-1.177306 12.796801 1.740365 25.337666 2.405798 38.032092 0.153562 2.610547 0.35831 5.937716 3.890228 5.732967 3.685479-0.204749 4.504474-3.429543 4.402099-6.654337-0.051187-1.27968-0.35831-2.610547-0.716621-3.83904-3.122419-11.414746-5.272282-22.983054-6.75671-34.704924-0.204749-1.433242-0.051187-3.122419-2.047489-3.736666z m698.295826 46.529168c-5.374656 5.528218-7.166208 10.8005-4.913971 17.403649 1.074931 3.122419-0.35831 6.244839-3.378355 8.343514-1.535616 1.074931-3.378355 2.661735-1.996301 4.658036 4.043789 5.886528 0.307123 10.339815-2.610548 14.741914-3.378355 5.016346-3.583104 15.100225 0.767808 20.218946 5.11872-21.652187 9.213697-42.946063 12.131367-65.366059z m-272.520669-147.419145c-1.330867 0.255936-1.535616 1.484429-1.996301 2.456986-5.937716 12.745614-3.890227 17.096526 9.623194 20.526068 1.177306 0.307123 2.661735 1.433242 3.531917 0 0.460685-0.716621 0.051187-2.20105-0.358311-3.173607-2.815296-6.091277-5.784154-12.131367-8.701824-18.171457-0.409498-0.818995-1.023744-1.586803-2.098675-1.63799z m-129.094127-12.028993c0.511872-0.511872 1.177306-0.92137 1.484429-1.484429 5.272282-9.111322 8.445889-19.144014 12.284929-28.818395 1.637991-4.094976 2.764109-8.497076 4.19735-12.745614 0.665434-1.945114 2.252237-5.11872-0.204748-5.988903-2.610547-0.92137-3.122419 2.508173-3.787853 4.504474-1.074931 3.173607-2.149863 6.347213-3.327169 9.52082-3.890227 10.135066-7.370957 20.372507-10.954061 30.661135-0.409498 1.228493-1.27968 2.764109 0.307123 4.350912z m344.285129 71.2014c0.204749-3.327168-0.716621-6.3984-5.988903-6.296026-6.193652 0.102374-5.477031 4.555661-5.169907 8.292327 0.255936 2.764109-2.047488 6.96146 2.354611 7.985203 3.020045 0.818995 8.804199-5.732967 8.804199-9.981504zM384.825496 431.661685c-2.149863-2.968858-4.76041-3.634291-6.96146-4.862785-5.067533-2.815296-10.544564-4.709223-16.379905-5.272282-2.661735-0.255936-4.197351 1.074931-4.658035 3.736666-0.35831 2.149863 0.665434 3.378355 2.661734 3.327168 8.343514-0.102374 16.431092 1.740365 25.337666 3.071233z m110.257236-231.263784c-2.661735 11.15881-5.221095 22.368808-3.327168 34.500174 4.862784-5.579405 7.217396-27.897026 3.327168-34.500174zM397.00805 286.494776l-1.074931-0.307123c-3.531917 10.288628-7.115021 20.526068-10.646938 30.814696-0.35831 1.023744-1.074931 2.252237 0 3.12242 1.177306 0.92137 2.508173 0.153562 3.685478-0.307123 1.842739-0.716621 2.20105-2.303424 2.559361-4.043789 1.740365-9.776756 3.634291-19.553512 5.47703-29.279081z" p-id="27533" fill="#70a4f2"></path><path d="M767.80815 0.204749c-0.665434 2.968858 1.586803 4.402099 3.275981 6.091277 8.906573 8.855386 18.888078 16.482279 28.204149 24.876981 9.674381 8.753012 18.273832 18.785704 27.129218 28.511272 12.233742 13.462234 24.262734 27.129218 35.012047 41.819945 2.405799 3.327168 5.016346 6.500775 5.988903 10.851687-19.195201-23.648488-37.929718-47.655286-61.475831-67.413547 1.893927 12.540865 8.445889 22.778305 15.816846 32.503874 7.524519 9.87913 16.584654 18.273832 27.589902 26.514972-5.886528 0.153562-10.288628-1.27968-14.793102-1.074932-12.233742 0.563059-21.95931 13.974106-18.47858 25.900725 5.067533 17.403649 26.003099 31.83844 43.969808 30.558761 6.296026-0.460685 10.442189-4.146163 15.35616-9.623195-1.586803 7.115021-5.732967 9.87913-10.339815 10.954062-16.175156 3.787853-29.483829-2.55936-40.642639-13.615796-10.646938-10.544564-14.383604-23.341365-9.008948-39.055836 0.204749 1.996301 0.307123 2.968858 0.56306 5.630592 5.067533-12.847988 14.63954-13.615796 26.207848-11.926618-3.327168-3.992602-6.296026-5.835341-10.186254-6.347213-38.236841-4.709223-69.461035-32.196751-79.23779-69.716971-0.818995-3.071232-1.842739-6.142464-2.354612-9.264884-0.665434-3.992602-2.917671-6.807898-5.732966-9.418445-2.405799-2.20105-4.606848-4.094976-5.425844 1.535616-0.92137-2.764109-1.893927-5.477031-2.815296-8.24114h6.756711c0.818995 1.27968 1.382054 2.764109 2.456985 3.736666 10.442189 9.776756 21.652187 18.47858 35.012047 23.955611 1.740365 0.716621 3.634291 1.893927 5.68178 0.563059-0.35831-2.20105-2.149863-2.764109-3.275981-3.941414-8.343514-8.59945-18.580955-15.100225-26.36141-24.365109h11.107623zM771.186506 1023.948813c1.945114-13.257486 1.945114-13.155111-11.261185-16.84059-8.650637-2.405799-17.250087-4.913972-26.105474-6.449588-3.224794-0.563059-7.729268-3.327168-7.882829 5.221095-1.27968-9.111322-8.138765-8.087578-12.745613-10.595751-10.8005-5.835341-22.010497-10.902874-33.220495-15.868033-11.465934-5.11872-21.908123-13.00155-33.629993-16.482279-11.875431-3.48073-14.690727-14.025294-21.95931-20.935567-0.102374-0.102374 0.153562-0.665434 0.307123-1.330867 3.685479 0.665434 5.68178 3.685479 7.370957 6.296026 4.811597 7.473332 11.824244 11.670682 19.502325 15.458536 19.451137 9.623194 39.15821 18.785704 58.814096 27.948212 9.316071 4.350912 19.348763 5.477031 29.074332 7.985204 12.233742 3.173607 24.723419 5.169908 36.905973 8.343514 10.902874 2.815296 21.95931 4.555661 32.913372 7.115022 3.327168 0.767808 6.04009-0.051187 8.701824-2.456986 7.780455-6.96146 16.482279-12.387303 27.026844-14.076481 4.043789-0.665434 8.087578-1.228493 11.721869 1.893926 3.173607 2.712922 4.197351-0.767808 5.425844-2.508173 10.954061-14.793102 24.51867-26.412597 41.461634-33.527618 10.954061-4.606848 22.317621-8.24114 35.677481-10.595751-3.890227 3.634291-7.422144 4.197351-10.646938 5.067533-15.612097 4.350912-30.609948 9.930317-43.56031 20.116571-8.138765 6.3984-15.253787 13.871732-21.754561 21.908123-2.149863 2.661735-2.815296 5.016346-0.56306 8.036391 3.531917 4.811597 4.350912 10.749313 6.091277 16.277531h-4.504473c-0.563059-8.394701-4.76041-15.202599-9.367259-21.908123-2.405799-3.429543-5.11872-4.350912-9.111322-3.429543-11.261185 2.661735-20.474881 8.701825-28.613646 16.687028-2.405799 2.354611-3.583104 5.221095-3.48073 8.599451h-3.378356c1.382054-4.094976 0.767808-7.063834-4.248537-7.473332-7.985204-0.716621-15.714471-2.764109-23.546114-4.4021-7.31977-1.535616-7.31977-1.484429-8.189952 5.886529-0.255936 2.047488-0.716621 4.043789-1.126119 6.04009h-2.098675zM452.187855 1022.873882c6.04009-5.169908 11.363559-11.670682 18.222645-15.100225 7.780455-3.890227 16.123969-8.59945 25.747163-6.347214l-0.051187-0.051187c-2.149863 4.402099-1.791552 8.753012 0.921369 12.643239 2.405799 3.531917 5.374656 6.654336 8.087579 9.981505H452.341417a3.992602 3.992602 0 0 0-0.153562-1.126118zM560.244041 367.780055c-3.583104 2.968858-3.941415 7.524519-5.732966 11.414746-0.767808 1.740365-1.27968 4.913972-3.787853 3.992602-2.764109-1.023744-1.637991-4.043789-0.511872-5.886528 5.835341-9.87913 8.701825-21.140315 14.383604-31.070633 1.996301-3.48073 1.484429-8.394701 5.886528-10.493376 0.051187 8.701825-4.811597 15.816846-7.473332 23.648488-0.92137 2.815296-2.764109 5.272282-2.764109 8.394701zM761.000252 617.624794c13.462234 2.252237 24.313922-7.217396 23.290178-20.730817-0.307123-3.992602 0.511872-7.268583 2.456986-10.646939 3.275981-5.68178 6.296026-11.568308 9.213696-17.454836 2.917671-5.835341 5.630592-11.824244 8.804199-17.608398 0.204749 9.008948-2.20105 17.659585-3.173607 26.463784-0.409498 3.634291-0.409498 3.531917 1.637991 4.606848 2.610547 1.330867-0.818995 5.528218 2.712922 6.296026 2.354611 0.511872 4.811597 0.511872 7.217395 0.614247 3.429543 0.102374 5.374656-1.842739 6.807898-4.862784 5.221095-10.646938 9.469633-21.703374 13.769358-32.708623 1.023744-2.55936 1.740365-5.272282 4.709223-8.701825-2.866483 12.182554-7.370957 22.010497-11.414747 31.992002-1.27968 3.122419-2.764109 6.142464-4.043789 9.316071-0.767808 1.893927-1.893927 4.094976 0 5.784154 1.996301 1.842739 3.122419-1.330867 5.374657-1.382054 1.126118 3.48073-0.563059 6.807898-1.074932 10.135066-1.433242 9.469633-5.579405 18.171457-9.520819 26.617345-4.811597 10.391002-14.332417 16.584654-24.672232 21.24269-14.895476 6.705524-30.712322 10.698125-46.068483 16.072782-1.637991 0.563059-3.378355 0.818995-4.606848-0.818996-1.126118-1.433242-0.307123-2.866483 0.35831-4.19735 5.11872-10.237441 10.237441-20.474881 15.458535-30.712322 0.563059-1.126118 1.330867-2.456986 2.354612-3.071232 3.173607-1.996301 2.712922-4.043789 0.460685-6.296026l-0.051188 0.051187z" p-id="27534" fill="#70a4f2"></path><path d="M761.102627 617.573607c-3.378355 4.709223-6.705524 9.418445-10.083879 14.127668-0.102374 0.153562-0.307123 0.255936-0.358311 0.409497-1.842739 5.221095-3.736666 10.339815-11.107623 7.985204-0.460685-0.153562-1.433242 1.023744-2.098675 1.689178-0.511872 0.511872-0.870182 1.228493-1.382055 1.791552-1.382054 1.382054-15.56091 3.071232-17.301274 2.098675-6.091277-3.378355-8.189953-7.729268-6.551962-15.100225 1.535616-6.96146 0.972557-13.308673-3.173607-19.348763-1.074931-1.535616-4.197351-5.374656 1.996301-4.504473 1.893927 0.255936 1.586803-1.740365 1.689178-2.968858 0.255936-3.429543-0.204749-6.756711-1.074932-10.032692-1.126118-4.248538 0.35831-6.910272 4.862785-6.500775 15.816846 1.484429 31.736066 1.586803 47.348163 4.709223 2.508173 0.511872 5.11872 1.535616 3.890227 4.811597-2.508173 6.859085-3.224794 14.332417-6.756711 20.833192 0 0.051187 0.102374 0 0.102375 0zM659.342467 577.186903c4.811597 2.712922 8.138765 6.603149 10.8005 11.158811 0.972557 1.689178 2.405799 4.043789 4.709222 3.122419 2.405799-0.92137 0.614246-3.275981 0.614247-5.016346-0.051187-2.968858-1.842739-5.272282-3.071232-7.780455-0.972557-2.047488-2.303424-4.299725-0.051188-6.142464 2.047488-1.689178 4.299725-0.665434 6.244839 0.614246 9.776756 6.551962 9.776756 6.551962 19.246389-0.307123 0.818995-0.563059 1.586803-1.330867 2.303424-0.255936 1.074931 1.740365 2.968858 4.248538 1.740365 5.630592-3.941415 4.402099-0.92137 7.012647 0.972557 10.902875 2.303424 4.76041 3.429543 10.391002 2.712921 15.91922-0.511872 3.992602-0.35831 7.831642 0.204749 11.773057 0.563059 4.197351 1.484429 8.138765-1.228493 12.43849-1.484429 2.354611-0.307123 6.500775-0.051187 9.827943 0.204749 2.968858-0.614246 5.016346-3.531917 6.244839-3.122419 1.330867-5.11872 0.35831-7.370957-1.996301-7.575706-7.882829-13.308673-17.147713-20.116571-25.593602-9.367258-11.670682-17.403649-24.16036-24.16036-37.52022-0.818995-1.586803-3.48073-3.787853-1.023744-5.169907 1.945114-1.074931 3.173607 1.996301 4.299725 3.583104 5.016346 7.422144 9.981505 14.946663 14.99785 22.419995 1.023744 1.484429 2.149863 4.043789 4.146164 2.610547 2.456986-1.740365 0.153562-3.634291-1.074931-5.169907-5.067533-6.296026-8.445889-13.615796-11.312372-21.293877zM557.787056 523.184404c1.074931-3.429543 2.098675-6.859085 3.173606-10.339815-8.701825 10.083879-14.537166 22.112872-24.672232 30.814696 22.931867-31.428943 39.567708-66.492177 58.711722-100.122169-11.056436 27.129218-21.396251 54.514371-37.213096 79.647288zM681.506526 642.348213c-20.116571-18.529768-36.650037-39.772457-48.934966-64.23994 2.712922 0.614246 48.167158 60.349713 48.934966 64.23994zM486.585656 607.233792c8.138765 0 12.796801 6.449588 20.884379 9.725568-4.965159 1.27968-7.063834 3.020045-5.579405 7.115021 0.409498 1.126118-0.92137 2.661735-2.20105 2.866484-4.811597 0.716621-7.063834 3.429543-7.422144 8.189952-0.051187 1.023744-0.563059 2.354611-1.996301 2.354612-1.382054-0.051187-1.740365-1.330867-1.791552-2.405799-0.307123-7.217396-2.047488-14.434791-0.204749-21.703374 0.511872-2.20105-0.511872-4.043789-1.689178-6.142464zM474.60785 732.949563c-0.870182 1.27968-2.098675 0.716621-3.020045 0.409497-14.076481-4.606848-28.869583-5.886528-43.201999-9.52082-4.504474-1.126118-9.213697-1.228493-13.820545-1.945113a17.403649 17.403649 0 0 1-4.811597-1.433242c-2.405799-1.126118-5.272282-2.55936-3.992602-5.732967 1.330867-3.224794 4.453287-3.83904 7.626893-2.405798 18.47858 8.189953 37.776156 13.922919 57.380855 18.785703 1.330867 0.409498 3.020045 0.255936 3.83904 1.84274zM662.925571 633.390452c-4.811597-2.303424-7.217396-6.603149-10.186253-10.23744-9.725569-11.875431-18.734516-24.262734-26.259036-37.673782-0.563059-0.972557-1.074931-1.996301-1.484429-3.020045-0.409498-0.972557-1.382054-2.252237-0.307123-3.071232 1.382054-1.126118 2.456986 0.255936 3.173607 1.27968 4.094976 5.579405 8.138765 11.209998 12.131367 16.84059 6.859085 9.776756 13.71817 19.553512 20.474881 29.432642 1.126118 1.791552 2.815296 3.48073 2.456986 6.449587zM644.651739 626.787303c-7.524519-5.11872-10.083879-14.076481-16.431092-20.116571 2.149863 6.654336 7.422144 11.926618 8.445889 19.144014-7.473332-9.111322-14.230042-18.632142-19.707073-30.456386 5.016346 1.126118 5.374656 5.477031 8.906573 7.31977-1.791552-5.784154-6.04009-9.623194-6.449588-15.304973 10.698125 11.619495 17.915521 25.542414 25.235291 39.414146zM703.005151 565.362659c0.767808-3.275981 0.511872-7.063834 5.579405-7.575706 3.020045-0.307123 4.248538-3.378355 5.68178-5.784154 1.023744-1.740365 1.893927-3.634291 3.071232-5.323469 0.614246-0.92137 1.689178-1.791552 2.866483-1.126118 1.27968 0.716621 0.767808 1.996301 0.358311 3.020045-3.583104 8.650637-8.497076 16.635841-13.35986 24.569857-1.484429 2.405799-2.764109 1.228493-3.173607-0.972557-0.460685-2.252237-0.716621-4.453287-1.023744-6.807898zM935.139118 95.054636c-1.893927-3.020045-4.658035-4.76041-7.88283-5.988902-10.186253-3.941415-20.884379-5.784154-31.684878-6.347214-13.462234-0.716621-21.549813 5.579405-26.0031 19.246389-0.460685 1.382054-0.767808 2.866483-1.382054 5.067533-2.098675-2.764109-1.228493-5.016346-0.614247-7.166209 3.583104-12.336116 12.43849-19.39995 26.36141-19.246388 13.308673 0.102374 26.207848 3.429543 38.492777 8.650637 1.893927 0.818995 6.449588 1.740365 2.610547 5.784154 0-0.051187 0.102374 0 0.102375 0zM490.885381 731.567508c8.087578 0.153562 15.407348-1.433242 22.675931-1.382054 13.615796 0.153562 26.617346-3.224794 39.874831-5.272282 1.996301-0.307123 4.094976-0.511872 6.142465-0.56306 1.637991-0.051187 3.83904-0.255936 3.992602 2.047489 0.153562 2.610547-2.20105 2.55936-3.992602 2.866483-0.204749 0.051187-0.35831 0.051187-0.563059 0.051187-21.345064-0.870182-42.383004 4.146163-63.728068 3.787853-1.27968 0-2.661735 0.665434-4.4021-1.535616zM511.053139 442.871682c8.804199-11.209998 12.489678-26.259035 24.979355-34.858485-9.162509 11.005249-14.485979 24.774606-24.979355 34.858485zM496.157663 1001.426443c1.126118-0.665434 2.149863-1.586803 3.327168-1.996301 11.72187-4.350912 20.270132-12.489678 27.180405-22.624743 1.535616-2.252237 2.866483-4.811597 6.551962-7.012647-3.83904 11.363559-12.028993 17.966708-19.707073 26.361409 11.773057-1.637991 21.140315-5.528218 29.074331-12.7968 1.637991-1.535616 3.173607-3.224794 5.016346-4.504474 1.893927-1.27968 4.146163-1.330867 3.224794 1.791552-1.228493 4.248538 0.92137 3.531917 3.378355 2.866483 3.583104-0.972557 6.500775-2.917671 8.548263-5.988903 3.992602-5.886528 7.985204-11.824244 11.926619-17.761959 1.126118-1.637991 1.535616-3.890227 3.890227-4.555661 1.586803 1.27968 0.35831 2.405799-0.255936 3.378355-3.122419 5.169908-6.347213 10.237441-9.469632 15.356161-0.716621 1.177306-2.508173 2.354611-1.177306 3.890228 1.023744 1.126118 2.456986-0.051187 3.634291-0.511872 5.323469-2.047488 10.083879-4.862784 13.462235-9.674382 3.583104-5.067533 7.268583-10.032692 11.005248-14.946663 1.023744-1.382054 1.382054-3.583104 4.453287-3.685479-1.842739 7.012647-8.036391 11.363559-10.442189 19.092827 6.603149-2.764109 12.08018-5.067533 16.021594-10.186253 0.92137-1.228493 2.098675-3.429543 3.941415-1.84274 1.535616 1.27968 0.255936 3.173607-0.716621 4.504474a397.110322 397.110322 0 0 1-32.094376 38.390403c-0.460685 0.511872-1.023744 1.074931-2.20105 0.460684 5.732967-10.339815 15.049038-17.966708 21.805748-28.511272-5.272282 0.307123-9.469633 2.508173-12.694426 4.913972-9.060135 6.705524-19.809448 8.189953-29.944514 11.568308-4.094976 1.330867-8.189953 2.712922-12.08018 4.504474-14.537166 6.756711-30.046888 8.292327-45.658985 9.520819 0-0.051187 0 0 0 0zM944.352814 477.934916c-3.173607 39.209398-8.957761 78.009298-19.348763 116.092577 6.96146-38.595151 13.00155-77.343864 19.348763-116.092577z" p-id="27535" fill="#70a4f2"></path></svg>